<svg width="20" height="20" fill="none" xmlns="http://www.w3.org/2000/svg"><path d="M10 .588C4.83.588.588 4.83.588 10c0 4.411 3.096 8.418 7.206 9.412v-3.114c-.407.089-.782.092-1.197-.03-.556-.165-1.008-.535-1.343-1.1-.214-.361-.593-.752-.988-.723l-.097-1.1c.855-.072 1.594.522 2.033 1.26.195.327.42.52.708.605.278.082.577.042.926-.08.087-.698.407-.96.648-1.327-2.451-.366-3.428-1.667-3.816-2.693-.514-1.363-.238-3.066.67-4.142.018-.021.05-.076.038-.114-.417-1.259.09-2.3.11-2.41.48.142.558-.143 2.088.786l.264.159c.11.066.076.028.187.02A7.988 7.988 0 0 1 10 5.13a8.021 8.021 0 0 1 2.002.285l.086.008c-.008 0 .023-.005.075-.036 1.91-1.157 1.842-.779 2.354-.945.019.11.52 1.168.107 2.41-.055.172 1.657 1.74.708 4.256-.388 1.027-1.365 2.328-3.816 2.694.314.479.692.734.69 1.722v3.887c4.11-.994 7.206-5 7.206-9.412C19.412 4.83 15.17.588 10 .588Z" fill="#fff"/></svg>