<svg aria-hidden="true" style="width:0;height:0;position:absolute;overflow:hidden" xmlns="http://www.w3.org/2000/svg"><defs><symbol id="icon-burger" viewBox="0 0 46 32"><path fill="none" stroke="#d41443" style="stroke:var(--color1,#d41443)" stroke-width="2.286" d="M0 2.286h45.714M0 16h45.714M0 29.714h45.714"/></symbol><symbol id="icon-burger-close" viewBox="0 0 32 32"><path fill="none" stroke="#fff" style="stroke:var(--color2,#fff)" stroke-width="2" d="m2.518 2 26.963 28M2 29.481 30 2.518"/></symbol><symbol id="icon-buy-now-button-icon" viewBox="0 0 22 32"><path fill="none" stroke="#d41443" style="stroke:var(--color1,#d41443)" stroke-linejoin="round" stroke-linecap="round" stroke-width="6.4" d="M5.575 3.2 18.455 16 5.575 28.8"/></symbol><symbol id="icon-hero-header-logo" viewBox="0 0 127 32"><path fill="#fff" style="fill:var(--color1,#fff)" d="M31.36 16.32C31.36 24.98 24.483 32 16 32S.64 24.98.64 16.32 7.517.64 16 .64s15.36 7.02 15.36 15.68z"/><path fill="#d41443" style="fill:var(--color2,#d41443)" d="M11.849.562C4.443 2.805 0 8.635 0 16.004c0 6.023 3.091 11.277 8.179 13.904 2.64 1.346 3.027.384.58-1.474-1.739-1.41-2.061-2.05-2.061-4.421 0-1.666-.386-3.011-.966-3.524-1.159-.961-1.288-3.46-.129-4.357.451-.384.902-1.666.966-2.819.322-4.229 4.894-8.201 9.467-8.201s9.145 3.973 9.466 8.201c.064 1.153.515 2.435.966 2.819 1.159.897 1.03 3.396-.129 4.357-.58.513-.966 1.858-.966 3.524 0 2.371-.322 3.011-2.061 4.421-2.705 2.114-1.932 2.883 1.095 1.025 4.25-2.627 7.406-8.33 7.406-13.391C31.813 5.944 21.252-2.257 11.85.562z"/><path fill="#d41443" style="fill:var(--color2,#d41443)" d="M12.686 7.994c-1.159.513-2.125 1.153-2.125 1.538 0 .705 3.477 1.986 5.474 1.986s5.474-1.281 5.474-1.986c0-.769-3.993-2.499-5.603-2.499-.644.064-2.125.449-3.22.961zM45.851 11.326c-.966.256-1.159 1.089-1.159 5.703v5.382h4.572l-.193-5.574c-.193-5.831-.451-6.279-3.22-5.51zM53.386 11.646c-2.125 1.153-2.898 2.563-2.898 5.318 0 3.78 2.061 5.574 5.86 5.318 2.576-.192 2.833-.384 3.027-1.986s.064-1.73-1.932-1.602c-2.061.192-2.125.064-2.125-2.05s.129-2.243 1.996-2.05c1.546.128 2.125-.128 2.383-1.089.129-.641 0-1.538-.386-1.922-.902-.897-4.25-.897-5.925.064zM61.049 11.71c-.193.513-.258 3.011-.129 5.638l.193 4.741h4.186c3.864 0 4.186-.128 4.379-1.474.193-1.217-.064-1.41-2.06-1.41-1.288 0-2.319-.32-2.319-.641 0-.384.902-.641 1.932-.641 1.481 0 1.932-.256 1.932-1.281s-.451-1.281-1.932-1.281c-1.03 0-1.932-.32-1.932-.641 0-.384.837-.641 1.868-.641 1.804 0 3.027-1.41 2.254-2.627-.58-.961-7.985-.705-8.372.256zM73.993 11.518c-2.125.833-2.962 2.307-3.027 4.998-.065 4.613 1.803 6.215 6.633 5.767 1.868-.128 2.189-.448 2.189-1.794 0-1.41-.257-1.602-2.061-1.41-1.546.128-2.125-.064-2.447-1.089-.58-1.986.644-3.588 2.705-3.588 1.224 0 1.868-.384 1.996-1.217.451-2.05-2.833-3.011-5.989-1.666zM81.914 11.262c-.323.256-.515 2.883-.515 5.831v5.382l2.06-.192c1.61-.128 2.19-.577 2.512-1.794l.386-1.602.515 1.73c.387 1.474.837 1.794 2.512 1.794 2.769 0 3.091-.448 1.932-2.691-.708-1.41-.837-2.114-.322-2.627.837-.833.902-3.652.129-4.87-.644-1.025-8.371-1.858-9.208-.961zm5.28 3.46c0 .705-.257 1.281-.644 1.281-.322 0-.644-.577-.644-1.281s.322-1.281.644-1.281c.387 0 .644.577.644 1.281zM93.441 11.326c-.258.192-.451 2.819-.451 5.767v5.318h4.186c4.057 0 4.186-.064 4.186-1.602 0-1.346-.322-1.602-1.932-1.602-1.03 0-1.932-.32-1.932-.641 0-.384.708-.641 1.61-.641 1.159 0 1.61-.32 1.61-1.281s-.451-1.281-1.61-1.281c-.902 0-1.61-.32-1.61-.641 0-.384.902-.641 1.932-.641 1.61 0 1.932-.256 1.932-1.602 0-1.538-.193-1.602-3.735-1.602-2.061 0-3.992.192-4.186.448zM106.45 11.262c-1.16.32-4.122 8.842-3.542 10.252.515 1.281 3.413 1.153 4.186-.192.579-1.089.644-1.089 1.803 0 1.482 1.281 4.701 1.474 4.701.256 0-.384-.644-2.947-1.482-5.574-1.288-4.229-1.674-4.806-3.027-4.934-.902 0-2.061.064-2.64.192zm1.803 5.831c-.193.641-.322.256-.322-.769 0-1.089.129-1.538.322-1.153.129.448.129 1.346 0 1.922zM115.723 11.326c-.58.192-.837 1.986-.837 5.703v5.382h1.868c1.61 0 1.932-.32 2.189-1.794.257-1.666.257-1.666.772-.32.258.833.902 1.474 1.352 1.474.515 0 1.224-.641 1.546-1.474.515-1.346.58-1.346.58.384.065 1.602.257 1.794 2.061 1.602l1.996-.192.065-5.318c.129-4.934.064-5.318-1.288-5.638-2.061-.513-3.799.705-4.379 3.076l-.451 2.114-.708-2.243c-.902-3.011-2.254-3.78-4.765-2.755zM9.016 11.967c-.193.256-.386 1.089-.386 1.922 0 1.474.064 1.474 7.406 1.474s7.406 0 7.406-1.474c0-2.178-.58-2.435-2.64-1.41-2.318 1.217-7.213 1.217-9.531 0-1.03-.513-1.996-.705-2.254-.513zM7.148 17.669c-1.03 1.089.708 1.538 5.731 1.538h5.409v2.243c0 1.217.322 2.243.644 2.243.386 0 .644-.961.644-2.178 0-2.114.129-2.243 2.576-2.435 1.417-.128 2.576-.513 2.576-.833 0-.705-16.872-1.281-17.581-.577z"/><path fill="#d41443" style="fill:var(--color2,#d41443)" d="M8.629 23.308c0 3.524 1.224 4.229 7.406 4.229s7.406-.705 7.406-4.229c0-1.538-.322-2.178-.966-2.178-.58 0-.966.577-.966 1.538 0 3.588-4.894 3.908-5.603.384-.322-1.858-.515-1.922-3.8-1.922H8.629v2.178zM12.622 30.548c.386 2.05 6.955 1.858 6.955-.128 0-.705-.837-.961-3.606-.961-3.027 0-3.542.192-3.349 1.089z"/></symbol><symbol id="icon-arrow-button" viewBox="0 0 32 32"><path d="M20.396 16.396a.56.56 0 0 0 0-.792l-3.564-3.564a.56.56 0 1 0-.792.792L19.208 16l-3.168 3.168a.56.56 0 1 0 .792.792l3.564-3.564zM12 16.56h8v-1.12h-8v1.12z"/></symbol></defs></svg>