<svg version="1.0" xmlns="http://www.w3.org/2000/svg" width="81.92" height="81.92" viewBox="0 0 61.44 61.44"><path d="M15.456.448c-.424.296-.528.96-.264 1.72.192.568.376.928.952 1.84.544.88.624 1.072.728 1.72.128.832.24 1.128.52 1.392.248.24.264.272.2.584-.192.944-.152.872-.752 1.184-1.04.536-1.624 1.232-2.088 2.472-.44 1.176-.536 1.976-.528 4.56.008 2.616-.064 3.592-.368 4.784-.192.792-.208.984-.208 2.576-.008 1.864-.016 1.776.56 4.12.688 2.76.704 2.936.712 6.64.008 1.8.04 3.496.072 3.76.192 1.488.56 2.984 1.2 4.84.84 2.448 1.704 3.488 3.664 4.432 1.704.816 3.144.672 4.176-.424.136-.136.304-.248.384-.248.168 0 .264-.184.176-.336-.032-.056-.064-.368-.064-.704-.008-.8-.28-1.352-1.24-2.52-1.44-1.752-1.536-1.928-2.008-3.6a25.125 25.125 0 0 0-.376-1.24c-.824-2.552-1.008-3.136-1.216-3.936-.44-1.704-.512-2.328-.512-4.464-.008-2.096.088-4.16.176-4.16.072 0 .336 1.04.648 2.56.128.64.272 1.304.32 1.48.04.176.128.568.2.88.144.632.16.688.576 1.96.296.912 1.504 3.408 2.296 4.752.712 1.2 1.744 2.464 3.416 4.168 2.744 2.808 2.704 2.704 3.2 7.84.224 2.304.752 3.712 1.8 4.792.768.792 1.032.832 3.16.4.608-.128 1.128-.2 1.152-.176.064.056-.32.832-.448.904-.048.032-.472.064-.936.08-1.304.032-1.984.352-3.128 1.488-.928.92-1.08 1.512-.544 2.128.544.616 1.344.824 3.392.88 2.656.072 5.104-.36 5.488-.976.056-.088.152-.312.216-.504.056-.184.152-.376.2-.416.168-.136.424.552.52 1.376.12 1.016.2 1.28.456 1.528.392.368.832.472 2.144.512.88.032 1.352.008 1.76-.08 2.32-.496 3.136-1.696 2.224-3.24-.16-.272-.616-.904-1.008-1.392-.992-1.24-1.272-1.696-2.2-3.544-1.192-2.376-1.968-3.464-2.696-3.768-.224-.088-.28-.16-.28-.336.008-.48.24-2.208.32-2.288.12-.12.68.32 1.064.832.184.24.568.832.848 1.296.88 1.464 1.616 2.144 2.312 2.144.304 0 .4-.04.656-.304.264-.264.304-.36.392-.92.048-.344.088-.784.088-.976 0-.328.016-.36.2-.36.256 0 .256-.104.008-.304-.184-.136-.288-.416-.4-1.048l-.048-.272.36.048c.28.04.36.032.36-.064 0-.144-.248-.28-.504-.28s-.304-.072-.616-.88c-.552-1.448-.792-1.824-1.776-2.784-.648-.632-1.072-.928-2.16-1.552-.768-.432-.864-.512-.912-.744-.064-.352-.016-.56.128-.544.064.008.32.064.56.112.584.12 1.72.04 2.248-.16.44-.176 1.376-.768 1.624-1.04a.373.373 0 0 0 .104-.336c-.024-.096 0-.4.064-.664.264-1.104.112-1.368-1.056-1.848-1.824-.752-2.272-1.48-1.728-2.824.208-.528.416-.944 1.928-3.856 1.688-3.24 2.192-4.512 2.208-5.52.016-1.072-.304-1.512-2.032-2.8-.72-.536-1.6-1.296-2.52-2.176-1.448-1.376-2.84-2.272-4.912-3.136-.752-.32-1.088-.592-1.504-1.248a5.906 5.906 0 0 0-.44-.616c-.16-.168-.16-.176.024-.68.232-.64.24-1.416.04-3.384-.112-1.128-.192-1.584-.384-2.12-.128-.376-.256-.744-.28-.824-.024-.088.024-.216.128-.328.216-.232.408-.832.408-1.28 0-.592.232-1.32.68-2.152.24-.448.488-1.04.56-1.32.12-.472.12-.52-.016-.8-.12-.248-.192-.296-.424-.32-.296-.024-.624.16-1.336.736-.416.336-.896.448-1.936.448-1.28 0-1.816.24-2.368 1.048-.176.256-.36.48-.408.504-.048.016-.328-.072-.624-.208-.784-.344-1.192-.384-3.848-.384-2.64 0-2.952.04-3.784.48-.536.28-.68.288-1.144.088-.192-.088-.632-.216-.968-.288-.448-.096-.728-.216-1.04-.44-.728-.52-2.688-1.76-3.04-1.92-.416-.192-.688-.2-.928-.032zm8.792 7.928c.16.104.392.376.52.608.208.376.232.488.232 1.136 0 .648-.024.76-.24 1.152-.4.728-1.2 1.096-1.936.896-.832-.216-1.256-.8-1.256-1.728 0-.456.04-.64.224-.992.296-.584.848-1.096 1.312-1.24.448-.136.76-.088 1.144.168zm5.112.056c.048.064.304.2.568.304.256.104.472.216.472.256 0 .04-.072.152-.152.24a.951.951 0 0 0-.208.384c-.048.184-.008.272.216.496.624.624 1.424.4 1.424-.392 0-.424.136-.472.392-.152.32.4.168 1.048-.32 1.4-.944.672-3.032-.664-3.032-1.944 0-.56.368-.904.64-.592zm4.328 2.016c.2.04.448.232.952.744.856.864 1.224 1.408 1.16 1.688-.08.32-.488.904-.952 1.36-.408.4-1.368 1.12-1.496 1.12-.04 0-.232-.104-.432-.232-.2-.128-.488-.256-.64-.28-.328-.064-.328-.072-.72-1.168a7.22 7.22 0 0 0-.728-1.496 8.24 8.24 0 0 1-.432-.68c0-.008.304-.024.672-.024.632 0 .688-.016.992-.256.224-.184.336-.232.4-.168.088.088.336-.04.336-.184 0-.032.032-.152.08-.264.08-.224.272-.256.808-.16zm-12.096 1.344c.336.544 1.112.896 1.808.824.48-.048.8-.192 1.2-.552.16-.136.304-.224.328-.208.016.024.048.744.056 1.592.016 1.512.008 1.568-.216 2.272-.144.44-.232.896-.232 1.176 0 .256-.008.464-.016.464-.016 0-.16-.048-.328-.104-.176-.064-.584-.136-.912-.16-1.24-.104-3.144-.592-3.76-.96-.672-.408-.912-.736-.992-1.376-.168-1.28.872-2.64 2.384-3.12.48-.152.496-.144.68.152zm.368 5.48c.488.088 1.144.192 1.464.232.32.048.632.128.696.176.232.192.136.392-.28.6-.496.248-.584.408-.632 1.16-.048.552-.064.6-.232.624a.661.661 0 0 1-.376-.096c-.24-.16-.36-.16-.36-.016 0 .176.216.304.664.408.264.056.416.136.416.208 0 .152-.928.112-1.344-.064-.32-.136-.424-.112-.344.096.064.168.392.28 1.088.376.328.04.632.104.672.144.128.128-.08.456-.328.504-.496.096-1.184.408-1.464.664-.168.152-.32.272-.344.272-.112 0-.6-2.152-.712-3.08-.04-.4-.064-1.016-.048-1.376.016-.552.056-.68.216-.848.104-.112.224-.192.28-.176.048.016.488.104.968.192zm12.536-.016c.392.432.488.84.496 2.088L35 20.488l-.192-.032c-.472-.088-.544.168-.128.416.28.16.44.432.44.744 0 .136-.04.16-.224.12-.12-.024-.272-.016-.336.024-.176.112 0 .352.288.4.528.096.232 1.2-.328 1.2-.112 0-.712-.12-1.344-.272a19.604 19.604 0 0 0-2.104-.376l-.968-.104-.056-.52c-.096-1.008-.072-1.16.184-1.352.224-.168.304-.328.488-1.04.088-.336.256-.44.376-.224.144.248.688.528 1.016.528.408 0 1.056-.36 1.352-.752.448-.584.616-1.032.616-1.64 0-.64.08-.712.416-.352zm-10.368 1.848c.016 1.024.648 1.792 1.568 1.904.64.072.936-.056 1.576-.696.328-.328.616-.552.72-.552.088 0 .4.216.696.48.288.264.616.504.72.528.176.048.192.088.192.624 0 .312.024.752.048.976l.048.416-.504.248c-.28.136-.672.408-.872.592-1.12 1.056-2.328 1.568-3.296 1.384-.368-.064-.768-.424-.904-.808-.112-.304-.104-.328.08-.496.248-.216.256-.328.024-.36-.12-.016-.192-.088-.208-.2-.024-.152.04-.192.416-.304.36-.104.448-.168.448-.296 0-.152-.032-.16-.48-.112l-.48.056v-.328c0-.296.024-.328.24-.368.328-.072.488-.264.264-.32-.104-.032-.184-.136-.208-.264a.487.487 0 0 0-.248-.312c-.24-.112-.264-.224-.072-.44.136-.144.136-.16-.08-.312-.192-.144-.216-.208-.216-.632 0-.592.168-.944.44-.952.048 0 .088.24.088.544zM38.68 22.64c1.288 1.112 2.04 1.656 2.824 2.064.36.192.656.368.656.392 0 .024-.16.296-.352.616-.2.312-.6 1.072-.888 1.688a78.207 78.207 0 0 1-1.704 3.4c-.264.504-.544 1.08-.608 1.28-.16.48-.304 1.4-.28 1.8.032.464-.104.44-.272-.04-.224-.664-.296-1.792-.296-4.56.008-3.264-.08-4.568-.48-7.2-.128-.848-.112-.888.184-.552.144.16.688.664 1.216 1.112zm-15.12-.392c.032.192.024.36-.024.408-.096.096-1.76.712-1.976.728-.248.024-.264-.384-.024-.64.264-.288.944-.608 1.624-.768.312-.072.344-.048.4.272zm.04 1.12c0 .192-.088.352-.352.632-.44.472-.848 1.264-.848 1.64 0 .392.12.352.288-.104.192-.496.264-.632.584-1.072.152-.208.296-.36.336-.344.032.024.136.2.232.4.448.928 1.336 1.144 2.768.664.728-.24.776-.24 1.032-.12.144.072.392.152.552.176.248.048.312.112.448.408.088.208.232.384.336.424.248.096.28-.032.096-.368-.176-.336-.112-.392.528-.472.824-.096.752-.128.8.44.024.296.08.528.136.544.136.048.264-.504.208-.896l-.04-.328.528-.336c.616-.384.656-.36.584.352-.048.48.072.584.296.256.152-.208.16-.536.04-.968-.088-.336-.024-.472.408-.776.192-.136.224-.136.952.048.432.112.8.256.856.336.296.4.448 1.848.552 5.256.096 3.176.464 5.968.968 7.48.112.328.504 1.176.872 1.88.888 1.712.952 1.928.904 2.992-.048.968-.224 1.536-.712 2.256-.328.48-.704.808-1.176 1.008-.952.408-2.352.544-3.064.304-.52-.176-1.088-.64-1.672-1.376-.512-.632-.728-.984-2.504-3.904-1.12-1.84-1.368-2.192-2.52-3.576-1.424-1.712-2.304-2.904-2.688-3.664a14.712 14.712 0 0 1-1.368-3.976c-.128-.688-.344-2.96-.376-4.008l-.024-.744.48-.208c1.376-.576 1.56-.608 1.56-.256zm8.104-.176c.464.08.528.136.352.304-.08.088-.24.128-.408.12-.304-.024-.432.088-.296.256.16.192-.64.792-.816.616-.136-.136-.192-.104-.248.104-.04.168-.12.2-.648.28-.424.064-.656.064-.768.008a.293.293 0 0 0-.28-.016c-.152.088-.768-.072-.808-.2-.016-.048.08-.168.208-.264.136-.088.432-.328.656-.52.48-.408.864-.608 1.312-.688a7.068 7.068 0 0 1 1.744 0zm5.224 21.784c.032.144.056.584.048.968 0 .784-.176 3.352-.224 3.408-.08.088-1.432.568-1.592.568-.104 0-.256-.088-.352-.208-.368-.464-.72-2.024-.752-3.304l-.016-.832.76-.144c.496-.096.944-.24 1.28-.424.672-.352.776-.352.848-.032z"/><path d="M22.808 9.72c-.272.232-.448.68-.376.96.024.104.144.296.256.432.328.4.984.32 1.256-.152.248-.424.112-1.256-.224-1.392a.962.962 0 0 0-.912.152z"/></svg>