<?xml version="1.0" standalone="no"?>
<!DOCTYPE svg PUBLIC "-//W3C//DTD SVG 20010904//EN"
 "http://www.w3.org/TR/2001/REC-SVG-20010904/DTD/svg10.dtd">
<svg version="1.0" xmlns="http://www.w3.org/2000/svg"
 width="61.440000pt" height="61.440000pt" viewBox="0 0 61.440000 61.440000"
 preserveAspectRatio="xMidYMid meet">
<metadata>
Created by potrace 1.16, written by Peter Selinger 2001-2019
</metadata>
<g transform="translate(0.000000,61.440000) scale(0.008000,-0.008000)"
fill="#000000" stroke="none">
<path d="M1932 7624 c-53 -37 -66 -120 -33 -215 24 -71 47 -116 119 -230 68
-110 78 -134 91 -215 16 -104 30 -141 65 -174 31 -30 33 -34 25 -73 -24 -118
-19 -109 -94 -148 -130 -67 -203 -154 -261 -309 -55 -147 -67 -247 -66 -570 1
-327 -8 -449 -46 -598 -24 -99 -26 -123 -26 -322 -1 -233 -2 -222 70 -515 86
-345 88 -367 89 -830 1 -225 5 -437 9 -470 24 -186 70 -373 150 -605 105 -306
213 -436 458 -554 213 -102 393 -84 522 53 17 17 38 31 48 31 21 0 33 23 22
42 -4 7 -8 46 -8 88 -1 100 -35 169 -155 315 -180 219 -192 241 -251 450 -12
44 -33 114 -47 155 -103 319 -126 392 -152 492 -55 213 -64 291 -64 558 -1
262 11 520 22 520 9 0 42 -130 81 -320 16 -80 34 -163 40 -185 5 -22 16 -71
25 -110 18 -79 20 -86 72 -245 37 -114 188 -426 287 -594 89 -150 218 -308
427 -521 343 -351 338 -338 400 -980 28 -288 94 -464 225 -599 96 -99 129
-104 395 -50 76 16 141 25 144 22 8 -7 -40 -104 -56 -113 -6 -4 -59 -8 -117
-10 -163 -4 -248 -44 -391 -186 -116 -115 -135 -189 -68 -266 68 -77 168 -103
424 -110 332 -9 638 45 686 122 7 11 19 39 27 63 7 23 19 47 25 52 21 17 53
-69 65 -172 15 -127 25 -160 57 -191 49 -46 104 -59 268 -64 110 -4 169 -1
220 10 290 62 392 212 278 405 -20 34 -77 113 -126 174 -124 155 -159 212
-275 443 -149 297 -246 433 -337 471 -28 11 -35 20 -35 42 1 60 30 276 40 286
15 15 85 -40 133 -104 23 -30 71 -104 106 -162 110 -183 202 -268 289 -268 38
0 50 5 82 38 33 33 38 45 49 115 6 43 11 98 11 122 0 41 2 45 25 45 32 0 32
13 1 38 -23 17 -36 52 -50 131 l-6 34 45 -6 c35 -5 45 -4 45 8 0 18 -31 35
-63 35 -32 0 -38 9 -77 110 -69 181 -99 228 -222 348 -81 79 -134 116 -270
194 -96 54 -108 64 -114 93 -8 44 -2 70 16 68 8 -1 40 -8 70 -14 73 -15 215
-5 281 20 55 22 172 96 203 130 12 13 16 28 13 42 -3 12 0 50 8 83 33 138 14
171 -132 231 -228 94 -284 185 -216 353 26 66 52 118 241 482 211 405 274 564
276 690 2 134 -38 189 -254 350 -90 67 -200 162 -315 272 -181 172 -355 284
-614 392 -94 40 -136 74 -188 156 -19 30 -44 65 -55 77 -20 21 -20 22 3 85 29
80 30 177 5 423 -14 141 -24 198 -48 265 -16 47 -32 93 -35 103 -3 11 3 27 16
41 27 29 51 104 51 160 0 74 29 165 85 269 30 56 61 130 70 165 15 59 15 65
-2 100 -15 31 -24 37 -53 40 -37 3 -78 -20 -167 -92 -52 -42 -112 -56 -242
-56 -160 0 -227 -30 -296 -131 -22 -32 -45 -60 -51 -63 -6 -2 -41 9 -78 26
-98 43 -149 48 -481 48 -330 0 -369 -5 -473 -60 -67 -35 -85 -36 -143 -11 -24
11 -79 27 -121 36 -56 12 -91 27 -130 55 -91 65 -336 220 -380 240 -52 24 -86
25 -116 4z m1099 -991 c20 -13 49 -47 65 -76 26 -47 29 -61 29 -142 0 -81 -3
-95 -30 -144 -50 -91 -150 -137 -242 -112 -104 27 -157 100 -157 216 0 57 5
80 28 124 37 73 106 137 164 155 56 17 95 11 143 -21z m639 -7 c6 -8 38 -25
71 -38 32 -13 59 -27 59 -32 0 -5 -9 -19 -19 -30 -11 -12 -23 -33 -26 -48 -6
-23 -1 -34 27 -62 78 -78 178 -50 178 49 0 53 17 59 49 19 40 -50 21 -131 -40
-175 -118 -84 -379 83 -379 243 0 70 46 113 80 74z m541 -252 c25 -5 56 -29
119 -93 107 -108 153 -176 145 -211 -10 -40 -61 -113 -119 -170 -51 -50 -171
-140 -187 -140 -5 0 -29 13 -54 29 -25 16 -61 32 -80 35 -41 8 -41 9 -90 146
-23 66 -57 135 -91 187 -30 44 -54 83 -54 85 0 1 38 3 84 3 79 0 86 2 124 32
28 23 42 29 50 21 11 -11 42 5 42 23 0 4 4 19 10 33 10 28 34 32 101 20z
m-1512 -168 c42 -68 139 -112 226 -103 60 6 100 24 150 69 20 17 38 28 41 26
2 -3 6 -93 7 -199 2 -189 1 -196 -27 -284 -18 -55 -29 -112 -29 -147 0 -32 -1
-58 -2 -58 -2 0 -20 6 -41 13 -22 8 -73 17 -114 20 -155 13 -393 74 -470 120
-84 51 -114 92 -124 172 -21 160 109 330 298 390 60 19 62 18 85 -19z m46
-685 c61 -11 143 -24 183 -29 40 -6 79 -16 87 -22 29 -24 17 -49 -35 -75 -62
-31 -73 -51 -79 -145 -6 -69 -8 -75 -29 -78 -13 -2 -34 4 -47 12 -30 20 -45
20 -45 2 0 -22 27 -38 83 -51 33 -7 52 -17 52 -26 0 -19 -116 -14 -168 8 -40
17 -53 14 -43 -12 8 -21 49 -35 136 -47 41 -5 79 -13 84 -18 16 -16 -10 -57
-41 -63 -62 -12 -148 -51 -183 -83 -21 -19 -40 -34 -43 -34 -14 0 -75 269 -89
385 -5 50 -8 127 -6 172 2 69 7 85 27 106 13 14 28 24 35 22 6 -2 61 -13 121
-24z m1567 2 c49 -54 61 -105 62 -261 l1 -143 -24 4 c-59 11 -68 -21 -16 -52
35 -20 55 -54 55 -93 0 -17 -5 -20 -28 -15 -15 3 -34 2 -42 -3 -22 -14 0 -44
36 -50 66 -12 29 -150 -41 -150 -14 0 -89 15 -168 34 -78 19 -197 40 -263 47
l-121 13 -7 65 c-12 126 -9 145 23 169 28 21 38 41 61 130 11 42 32 55 47 28
18 -31 86 -66 127 -66 51 0 132 45 169 94 56 73 77 129 77 205 0 80 10 89 52
44z m-1296 -231 c2 -128 81 -224 196 -238 80 -9 117 7 197 87 41 41 77 69 90
69 11 0 50 -27 87 -60 36 -33 77 -63 90 -66 22 -6 24 -11 24 -78 0 -39 3 -94
6 -122 l6 -52 -63 -31 c-35 -17 -84 -51 -109 -74 -140 -132 -291 -196 -412
-173 -46 8 -96 53 -113 101 -14 38 -13 41 10 62 31 27 32 41 3 45 -15 2 -24
11 -26 25 -3 19 5 24 52 38 45 13 56 21 56 37 0 19 -4 20 -60 14 l-60 -7 0 41
c0 37 3 41 30 46 41 9 61 33 33 40 -13 4 -23 17 -26 33 -4 16 -16 32 -31 39
-30 14 -33 28 -9 55 17 18 17 20 -10 39 -24 18 -27 26 -27 79 0 74 21 118 55
119 6 0 11 -30 11 -68z m1819 -442 c161 -139 255 -207 353 -258 45 -24 82 -46
82 -49 0 -3 -20 -37 -44 -77 -25 -39 -75 -134 -111 -211 -90 -188 -140 -288
-213 -425 -33 -63 -68 -135 -76 -160 -20 -60 -38 -175 -35 -225 4 -58 -13 -55
-34 5 -28 83 -37 224 -37 570 1 408 -10 571 -60 900 -16 106 -14 111 23 69 18
-20 86 -83 152 -139z m-1890 49 c4 -24 3 -45 -3 -51 -12 -12 -220 -89 -247
-91 -31 -3 -33 48 -3 80 33 36 118 76 203 96 39 9 43 6 50 -34z m5 -140 c0
-24 -11 -44 -44 -79 -55 -59 -106 -158 -106 -205 0 -49 15 -44 36 13 24 62 33
79 73 134 19 26 37 45 42 43 4 -3 17 -25 29 -50 56 -116 167 -143 346 -83 91
30 97 30 129 15 18 -9 49 -19 69 -22 31 -6 39 -14 56 -51 11 -26 29 -48 42
-53 31 -12 35 4 12 46 -22 42 -14 49 66 59 103 12 94 16 100 -55 3 -37 10 -66
17 -68 17 -6 33 63 26 112 l-5 41 66 42 c77 48 82 45 73 -44 -6 -60 9 -73 37
-32 19 26 20 67 5 121 -11 42 -3 59 51 97 24 17 28 17 119 -6 54 -14 100 -32
107 -42 37 -50 56 -231 69 -657 12 -397 58 -746 121 -935 14 -41 63 -147 109
-235 111 -214 119 -241 113 -374 -6 -121 -28 -192 -89 -282 -41 -60 -88 -101
-147 -126 -119 -51 -294 -68 -383 -38 -65 22 -136 80 -209 172 -64 79 -91 123
-313 488 -140 230 -171 274 -315 447 -178 214 -288 363 -336 458 -81 158 -136
318 -171 497 -16 86 -43 370 -47 501 l-3 93 60 26 c172 72 195 76 195 32z
m1013 22 c58 -10 66 -17 44 -38 -10 -11 -30 -16 -51 -15 -38 3 -54 -11 -37
-32 20 -24 -80 -99 -102 -77 -17 17 -24 13 -31 -13 -5 -21 -15 -25 -81 -35
-53 -8 -82 -8 -96 -1 -12 7 -25 7 -35 2 -19 -11 -96 9 -101 25 -2 6 10 21 26
33 17 11 54 41 82 65 60 51 108 76 164 86 56 9 161 9 218 0z m653 -2723 c4
-18 7 -73 6 -121 0 -98 -22 -419 -28 -426 -10 -11 -179 -71 -199 -71 -13 0
-32 11 -44 26 -46 58 -90 253 -94 413 l-2 104 95 18 c62 12 118 30 160 53 84
44 97 44 106 4z"/>
<path d="M2851 6465 c-34 -29 -56 -85 -47 -120 3 -13 18 -37 32 -54 41 -50
123 -40 157 19 31 53 14 157 -28 174 -36 14 -84 6 -114 -19z"/>
</g>
</svg>
