<svg width="207" height="58" viewBox="0 0 207 58" fill="none" xmlns="http://www.w3.org/2000/svg">
<g filter="url(#filter0_d_70765_3)">
<ellipse cx="29" cy="25.5" rx="24" ry="24.5" fill="white"/>
<path d="M22.5144 0.877464C10.9429 4.38148 4 13.4919 4 25.0051C4 34.4159 8.82984 42.6253 16.779 46.73C20.9044 48.8324 21.5082 47.3307 17.6845 44.4273C14.9678 42.2248 14.4647 41.2237 14.4647 37.5194C14.4647 34.9164 13.8609 32.814 12.9553 32.0131C11.1441 30.5114 10.9429 26.6069 12.7541 25.2053C13.4584 24.6046 14.1628 22.6023 14.2634 20.8003C14.7665 14.1927 21.9107 7.9856 29.0548 7.9856C36.1989 7.9856 43.3431 14.1927 43.8462 20.8003C43.9468 22.6023 44.6511 24.6046 45.3555 25.2053C47.1667 26.6069 46.9654 30.5114 45.1543 32.0131C44.2487 32.814 43.6449 34.9164 43.6449 37.5194C43.6449 41.2237 43.1418 42.2248 40.425 44.4273C36.1989 47.7311 37.4064 48.9325 42.1356 46.0292C48.7766 41.9245 53.7071 33.0143 53.7071 25.1052C53.7071 9.28709 37.2051 -3.52758 22.5144 0.877464Z" fill="#D41443"/>
<path d="M23.8225 12.4908C22.0113 13.2917 20.502 14.2928 20.502 14.8935C20.502 15.9948 25.9355 17.9971 29.0548 17.9971C32.1741 17.9971 37.6076 15.9948 37.6076 14.8935C37.6076 13.6921 31.3691 10.989 28.8535 10.989C27.8473 11.0892 25.533 11.6898 23.8225 12.4908Z" fill="#D41443"/>
<path d="M75.6425 17.6968C74.1332 18.0972 73.8313 19.3987 73.8313 26.607V35.0166H77.3531H80.9754L80.6736 26.3066C80.3717 17.1962 79.9692 16.4954 75.6425 17.6968Z" fill="#D41443"/>
<path d="M87.4152 18.1974C84.0947 19.9995 82.8872 22.202 82.8872 26.5069C82.8872 32.4137 86.1071 35.2169 92.0438 34.8164C96.0686 34.5161 96.4711 34.2157 96.773 31.7129C97.0749 29.21 96.8736 29.0098 93.7543 29.21C90.5345 29.5104 90.4338 29.3101 90.4338 26.0063C90.4338 22.7026 90.6351 22.5023 93.5531 22.8027C95.968 23.0029 96.8736 22.6025 97.2761 21.1007C97.4773 20.0996 97.2761 18.698 96.6724 18.0973C95.2637 16.6957 90.0313 16.6957 87.4152 18.1974Z" fill="#D41443"/>
<path d="M99.3892 18.2973C99.0873 19.0982 98.9867 23.0027 99.188 27.1074L99.4898 34.5159H106.03C112.068 34.5159 112.571 34.3156 112.872 32.2132C113.174 30.3111 112.772 30.0107 109.653 30.0107C107.64 30.0107 106.03 29.5101 106.03 29.0096C106.03 28.4089 107.439 28.0084 109.049 28.0084C111.363 28.0084 112.068 27.608 112.068 26.0061C112.068 24.4043 111.363 24.0038 109.049 24.0038C107.439 24.0038 106.03 23.5033 106.03 23.0027C106.03 22.402 107.338 22.0015 108.948 22.0015C111.766 22.0015 113.677 19.799 112.47 17.8968C111.564 16.3951 99.9929 16.7956 99.3892 18.2973Z" fill="#D41443"/>
<path d="M119.614 17.9971C116.294 19.2986 114.986 21.6012 114.885 25.806C114.784 33.0143 117.702 35.5172 125.249 34.8164C128.167 34.6161 128.67 34.1156 128.67 32.0132C128.67 29.8106 128.268 29.5103 125.45 29.8106C123.035 30.0109 122.13 29.7105 121.627 28.1087C120.721 25.0051 122.633 22.5023 125.853 22.5023C127.765 22.5023 128.771 21.9016 128.972 20.6001C129.676 17.3964 124.545 15.8947 119.614 17.9971Z" fill="#D41443"/>
<path d="M131.991 17.5966C131.487 17.9971 131.186 22.1018 131.186 26.7071V35.1167L134.405 34.8164C136.921 34.6161 137.827 33.9153 138.33 32.0131L138.933 29.5103L139.738 32.2134C140.342 34.516 141.046 35.0166 143.663 35.0166C147.989 35.0166 148.492 34.3158 146.681 30.8118C145.574 28.6092 145.373 27.508 146.178 26.7071C147.486 25.4056 147.587 21.0005 146.379 19.0984C145.373 17.4965 133.299 16.195 131.991 17.5966ZM140.241 23.0028C140.241 24.1041 139.839 25.0051 139.235 25.0051C138.732 25.0051 138.229 24.1041 138.229 23.0028C138.229 21.9016 138.732 21.0005 139.235 21.0005C139.839 21.0005 140.241 21.9016 140.241 23.0028Z" fill="#D41443"/>
<path d="M150.002 17.6968C149.599 17.9971 149.298 22.1018 149.298 26.7071V35.0166H155.838C162.177 35.0166 162.378 34.9165 162.378 32.5137C162.378 30.4113 161.875 30.0109 159.36 30.0109C157.75 30.0109 156.341 29.5103 156.341 29.0097C156.341 28.409 157.448 28.0086 158.857 28.0086C160.668 28.0086 161.372 27.508 161.372 26.0063C161.372 24.5046 160.668 24.004 158.857 24.004C157.448 24.004 156.341 23.5034 156.341 23.0028C156.341 22.4022 157.75 22.0017 159.36 22.0017C161.875 22.0017 162.378 21.6012 162.378 19.4988C162.378 17.0961 162.077 16.996 156.542 16.996C153.322 16.996 150.304 17.2963 150.002 17.6968Z" fill="#D41443"/>
<path d="M170.328 17.5969C168.516 18.0974 163.888 31.4127 164.793 33.6152C165.598 35.6175 170.126 35.4173 171.334 33.3149C172.239 31.6129 172.34 31.6129 174.151 33.3149C176.466 35.3172 181.497 35.6175 181.497 33.7153C181.497 33.1146 180.49 29.11 179.182 25.0053C177.17 18.3978 176.566 17.4967 174.453 17.2965C173.044 17.2965 171.233 17.3966 170.328 17.5969ZM173.145 26.7073C172.843 27.7084 172.642 27.1078 172.642 25.5059C172.642 23.804 172.843 23.1032 173.145 23.7039C173.346 24.4047 173.346 25.8063 173.145 26.7073Z" fill="#D41443"/>
<path d="M184.817 17.6968C183.911 17.9971 183.509 20.8003 183.509 26.607V35.0166H186.427C188.942 35.0166 189.445 34.516 189.848 32.2134C190.25 29.6104 190.25 29.6104 191.055 31.7128C191.458 33.0143 192.464 34.0155 193.168 34.0155C193.973 34.0155 195.08 33.0143 195.583 31.7128C196.388 29.6104 196.489 29.6104 196.489 32.3135C196.59 34.8164 196.891 35.1167 199.709 34.8164L202.828 34.516L202.929 26.2065C203.13 18.4977 203.029 17.897 200.916 17.3964C197.696 16.5955 194.98 18.4977 194.074 22.2019L193.37 25.5057L192.263 22.0017C190.854 17.2963 188.741 16.0949 184.817 17.6968Z" fill="#D41443"/>
<path d="M18.0869 18.6978C17.785 19.0983 17.4832 20.3998 17.4832 21.7013C17.4832 24.0039 17.5838 24.0039 29.0546 24.0039C40.5255 24.0039 40.6261 24.0039 40.6261 21.7013C40.6261 18.2974 39.7205 17.8969 36.5006 19.4987C32.8783 21.4009 25.231 21.4009 21.6086 19.4987C19.9987 18.6978 18.4894 18.3975 18.0869 18.6978Z" fill="#D41443"/>
<path d="M15.1688 27.608C13.5589 29.31 16.2757 30.0108 24.1242 30.0108H32.5764V33.5148C32.5764 35.417 33.0795 37.0188 33.5826 37.0188C34.1863 37.0188 34.5888 35.5171 34.5888 33.6149C34.5888 30.3111 34.7901 30.1109 38.6137 29.8105C40.8274 29.6103 42.6386 29.0096 42.6386 28.5091C42.6386 27.4078 16.2757 26.5068 15.1688 27.608Z" fill="#D41443"/>
<path d="M17.4832 36.4181C17.4832 41.9244 19.395 43.0256 29.0546 43.0256C38.7143 43.0256 40.6261 41.9244 40.6261 36.4181C40.6261 34.0153 40.123 33.0142 39.1168 33.0142C38.2112 33.0142 37.6075 33.9152 37.6075 35.4169C37.6075 41.0233 29.9602 41.5239 28.8534 36.0176C28.3503 33.1143 28.0484 33.0142 22.9167 33.0142H17.4832V36.4181Z" fill="#D41443"/>
<path d="M23.722 47.7312C24.3257 50.9349 34.5892 50.6345 34.5892 47.531C34.5892 46.4297 33.2811 46.0292 28.9543 46.0292C24.2251 46.0292 23.4201 46.3296 23.722 47.7312Z" fill="#D41443"/>
</g>
<defs>
<filter id="filter0_d_70765_3" x="0" y="0" width="207" height="58" filterUnits="userSpaceOnUse" color-interpolation-filters="sRGB">
<feFlood flood-opacity="0" result="BackgroundImageFix"/>
<feColorMatrix in="SourceAlpha" type="matrix" values="0 0 0 0 0 0 0 0 0 0 0 0 0 0 0 0 0 0 127 0" result="hardAlpha"/>
<feOffset dy="4"/>
<feGaussianBlur stdDeviation="2"/>
<feComposite in2="hardAlpha" operator="out"/>
<feColorMatrix type="matrix" values="0 0 0 0 0 0 0 0 0 0 0 0 0 0 0 0 0 0 0.25 0"/>
<feBlend mode="normal" in2="BackgroundImageFix" result="effect1_dropShadow_70765_3"/>
<feBlend mode="normal" in="SourceGraphic" in2="effect1_dropShadow_70765_3" result="shape"/>
</filter>
</defs>
</svg>
